<svg width="87" height="32" viewBox="0 0 87 32" fill="none" xmlns="http://www.w3.org/2000/svg">
<path d="M49.8462 11.5215H41.6239C42.3505 17.9768 42.3553 24.493 41.6381 30.9494H49.8658C49.2077 24.4905 49.2011 17.9817 49.8462 11.5215Z" fill="black"/>
<path d="M86.9176 19.8009C86.6917 17.3726 85.8165 15.2112 83.9326 13.5514C80.5383 10.5645 74.0718 10.3404 70.4232 13.1049C67.7157 15.156 66.9667 18.0646 66.8849 21.2222C66.9543 24.4243 67.6765 27.3151 70.3414 29.3663C71.9424 30.5991 73.8157 31.1221 75.7939 31.2626C78.9746 31.4886 81.9633 30.9567 84.3222 28.6031C86.77 26.1606 87.2183 23.0617 86.9176 19.8009ZM76.9947 29.5121H76.984C76.9485 29.5146 76.9128 29.5146 76.8773 29.5121C76.7034 29.4868 76.5382 29.4203 76.3952 29.3182C76.2662 29.2409 76.1523 29.1409 76.0589 29.0229C75.0076 27.8684 74.2569 24.8264 74.2569 21.256C74.2569 17.6857 75.0129 14.6223 76.0696 13.4767C76.1357 13.4004 76.2097 13.3312 76.2902 13.2703C76.4697 13.1097 76.6948 13.009 76.9342 12.9821H76.984H76.9947C78.5085 12.9821 79.7342 16.6824 79.7342 21.2454C79.7342 25.8084 78.5085 29.5121 76.9947 29.5121Z" fill="black"/>
<path d="M39.9819 19.8479C39.6528 17.03 38.6441 14.5715 36.2016 12.91C34.3515 11.6522 32.2613 11.2217 30.0554 11.1844C25.0743 11.1043 21.5164 13.7639 20.3565 18.4781C20.063 19.6735 20.1448 19.8532 21.2691 20.4741C22.8898 17.5761 25.9318 17.3858 28.5628 18.2255C30.7243 18.9175 32.3395 20.5079 32.2986 21.5663C31.5194 21.1074 30.6976 20.4758 29.7583 20.1005C28.1252 19.444 26.3978 19.4956 24.6829 19.8069C21.7406 20.3406 19.8051 22.406 19.7659 25.0388C19.7126 28.7106 21.1891 30.6746 24.5228 31.3648C25.1277 31.4893 25.7379 31.5943 26.3463 31.7063H28.481C29.938 31.4164 31.3878 31.114 32.3805 29.5716V30.9201H40.5316C40.3537 27.3622 40.1936 23.8683 40.0264 20.3762C40.0104 20.2037 40.0033 20.024 39.9819 19.8479ZM31.3202 29.1393C31.2785 29.4641 31.1157 29.7611 30.8643 29.9709C30.6129 30.1806 30.2916 30.2878 29.9646 30.2707H29.8739H29.801C28.5699 30.2707 27.5737 28.3868 27.5737 26.0617C27.5737 23.7865 28.529 21.9328 29.7245 21.8563H29.7529C30.5126 21.794 30.9982 22.2352 31.2757 22.8614C31.3042 22.9272 31.3344 22.9948 31.3629 23.0642C31.8229 23.9972 32.0517 25.0271 32.03 26.0671C32.0211 27.2768 31.7489 28.3708 31.3202 29.1393Z" fill="black"/>
<path d="M67.65 11.6788C66.346 10.2876 63.368 10.156 62.0036 11.6521C61.0892 12.6519 60.4434 13.9256 59.8261 15.1531C59.3636 16.0692 59.1395 17.1099 58.8086 18.0883L58.6413 18.0545C58.7285 16.6901 58.8192 15.3274 58.9064 13.9541C58.9972 12.6901 59.2428 11.442 59.6376 10.2378C60.1712 8.55317 60.4826 5.41154 57.2733 2.0173C55.2969 -0.0711856 48.8411 -0.537271 45.7902 0.615489C41.8765 2.10447 41.4656 5.73887 41.4656 5.73887C41.4656 5.73887 41.4656 5.79935 41.4762 5.90431C41.4869 6.00927 41.4656 6.0822 41.4656 6.16937C41.468 6.7906 41.6109 7.40324 41.8835 7.96145C42.1561 8.51966 42.5515 9.00899 43.0399 9.39283C43.7241 9.99176 44.5982 10.329 45.5074 10.3446C45.5892 10.3446 45.6728 10.3446 45.7546 10.3446C46.338 10.3464 46.9157 10.2308 47.4535 10.0048C48.6774 9.61698 50.122 8.79866 50.122 7.09443C50.122 4.12358 53.6976 4.8316 53.6976 6.59454C53.6976 7.83981 53.3205 8.55139 53.1017 8.85381C52.9932 9.0068 52.8847 9.16157 52.7904 9.32345C52.2826 10.1567 51.6358 10.8968 50.878 11.5116C51.5724 17.9664 51.576 24.4768 50.8887 30.9324H59.0132C58.8886 28.086 58.8103 25.3127 58.6271 22.5375C58.5293 21.0681 59.063 19.878 59.9115 18.775C60.5253 17.9798 61.3347 17.512 62.3718 17.6258C63.5068 17.7503 64.6364 17.9336 65.7874 18.0937C65.816 18.0595 65.841 18.0226 65.8621 17.9834C66.5452 16.3823 67.191 14.7564 67.9257 13.1802C68.2139 12.5469 68.0787 12.1342 67.65 11.6788Z" fill="black"/>
<path d="M8.54958 10.3993C8.56381 9.72332 8.52112 8.75557 9.61695 8.78048C10.6576 8.8036 10.6167 9.73399 10.7003 10.4296C10.8782 11.9488 10.9867 13.4769 11.1219 14.9926H18.9102C18.8319 14.1725 18.7874 13.4129 18.6825 12.6621C18.2733 9.69664 16.5015 7.7647 13.5502 7.35732C11.8793 7.13051 10.1913 7.05549 8.50689 7.13317V7.11182C6.25557 7.1104 4.09584 8.00314 2.50259 9.59372C0.909329 11.1843 0.0129781 13.3425 0.0106201 15.5939L0.0106201 22.8093C0.0111545 24.7212 0.656668 26.577 1.84274 28.0766C3.02882 29.5761 4.68609 30.6317 6.54648 31.0725V31.0939C6.69947 31.1205 6.85246 31.1437 7.00545 31.1668C7.2998 31.2191 7.59671 31.256 7.89493 31.2771C9.98186 31.4887 12.0884 31.3989 14.1497 31.0102C17.3518 30.4161 19.1094 27.4648 18.7376 23.5102H11.0881C11.065 23.8446 11.0543 24.1364 11.0241 24.4246C10.8729 25.8655 10.7751 27.3171 10.526 28.7403C10.4602 29.1157 9.97986 29.5978 9.60094 29.6992C8.97831 29.8664 8.74171 29.2829 8.68123 28.7599C8.62786 28.308 8.56737 27.8562 8.514 27.4025V12.7938C8.52231 11.9968 8.53417 11.1987 8.54958 10.3993Z" fill="black"/>
</svg>
